<svg width="100" height="100" viewBox="0 0 100 100" fill="none" xmlns="http://www.w3.org/2000/svg">
<path fill-rule="evenodd" clip-rule="evenodd" d="M7.90329 29.2046C7.90329 30.006 7.25298 30.6563 6.45164 30.6563C5.65031 30.6563 5 30.006 5 29.2046V6.45164C5 5.65031 5.65031 5 6.45164 5H29.2046C30.006 5 30.6563 5.65031 30.6563 6.45164C30.6563 7.25298 30.006 7.90329 29.2046 7.90329H7.90329V29.2046ZM50 21.7059L26.9449 35.017L50 48.3281L73.0551 35.017L50 21.7059ZM74.5038 37.5249V64.147L51.4516 77.4562V50.834L74.5038 37.5249ZM48.5484 77.4562L25.4962 64.147V37.5249L48.5484 50.834V77.4562ZM70.7953 7.90329C69.994 7.90329 69.3437 7.25298 69.3437 6.45164C69.3437 5.65031 69.994 5 70.7953 5H93.5484C94.3497 5 95 5.65031 95 6.45164V29.2046C95 30.006 94.3497 30.6563 93.5484 30.6563C92.747 30.6563 92.0967 30.006 92.0967 29.2046V7.90329H70.7953ZM92.0967 70.7953V92.0967H70.7953C69.994 92.0967 69.3437 92.747 69.3437 93.5484C69.3437 94.3497 69.994 95 70.7953 95H93.5484C94.3497 95 95 94.3497 95 93.5484V70.7953C95 69.994 94.3497 69.3437 93.5484 69.3437C92.747 69.3437 92.0967 69.994 92.0967 70.7953ZM29.2046 92.0967H7.90329V70.7953C7.90329 69.994 7.25298 69.3437 6.45164 69.3437C5.65031 69.3437 5 69.994 5 70.7953V93.5484C5 94.3497 5.65031 95 6.45164 95H29.2046C30.006 95 30.6563 94.3497 30.6563 93.5484C30.6563 92.747 30.006 92.0967 29.2046 92.0967Z" fill="#FCC419"/>
</svg>
