<svg width="512" height="512" viewBox="0 0 512 512" fill="none" xmlns="http://www.w3.org/2000/svg">
<path d="M138.402 147.125L143.242 141.159C143.745 140.548 144.123 139.844 144.353 139.086C144.582 138.328 144.66 137.533 144.581 136.745C144.502 135.957 144.268 135.193 143.892 134.496C143.516 133.799 143.006 133.184 142.391 132.685C141.776 132.186 141.069 131.814 140.31 131.59C139.55 131.365 138.754 131.294 137.967 131.379C137.18 131.464 136.417 131.704 135.723 132.085C135.029 132.466 134.418 132.98 133.923 133.599L129.983 138.456C122.804 133.234 113.927 130.897 105.107 131.904C96.2871 132.912 88.1663 137.193 82.3499 143.899C76.5336 150.605 73.445 159.25 73.6948 168.124C73.9446 176.998 77.5146 185.455 83.699 191.823C89.8834 198.192 98.2322 202.009 107.095 202.519C115.957 203.029 124.689 200.195 131.563 194.578C138.437 188.961 142.954 180.97 144.22 172.183C145.487 163.397 143.41 154.455 138.402 147.125ZM109.143 190.534C105.469 190.538 101.845 189.677 98.5641 188.022C95.2834 186.366 92.4379 183.963 90.2572 181.005C88.0765 178.048 86.6217 174.619 86.0102 170.995C85.3987 167.372 85.6477 163.656 86.737 160.146C87.8264 156.637 89.7256 153.433 92.2813 150.792C94.8371 148.152 97.9778 146.15 101.45 144.947C104.922 143.744 108.628 143.374 112.27 143.868C115.911 144.361 119.385 145.703 122.412 147.787L108.442 165.006L101.537 158.856C100.948 158.332 100.262 157.929 99.5183 157.67C98.7741 157.411 97.9862 157.301 97.1996 157.347C96.413 157.392 95.643 157.592 94.9337 157.935C94.2243 158.278 93.5895 158.757 93.0654 159.346C92.5414 159.934 92.1383 160.62 91.8793 161.364C91.6203 162.108 91.5104 162.896 91.5558 163.683C91.6013 164.47 91.8013 165.24 92.1443 165.949C92.4874 166.658 92.9668 167.293 93.5552 167.817L105.153 178.146C106.252 179.125 107.672 179.666 109.143 179.666C109.304 179.666 109.466 179.659 109.628 179.646C110.436 179.581 111.223 179.352 111.94 178.974C112.658 178.595 113.291 178.076 113.803 177.446L130.329 157.076C132.02 160.648 132.78 164.59 132.539 168.535C132.298 172.48 131.062 176.299 128.948 179.638C126.834 182.977 123.909 185.728 120.447 187.633C116.984 189.538 113.095 190.536 109.143 190.534Z" fill="#FCC419"/>
<path d="M138.402 245.302L143.242 239.336C143.744 238.725 144.121 238.021 144.351 237.263C144.58 236.506 144.657 235.71 144.578 234.923C144.499 234.136 144.264 233.372 143.889 232.675C143.513 231.979 143.003 231.364 142.389 230.865C141.774 230.366 141.067 229.994 140.308 229.77C139.549 229.546 138.753 229.474 137.966 229.559C137.18 229.643 136.417 229.883 135.723 230.263C135.03 230.644 134.418 231.158 133.923 231.776L129.983 236.633C122.804 231.411 113.927 229.073 105.107 230.081C96.2871 231.089 88.1663 235.369 82.3499 242.076C76.5336 248.782 73.445 257.427 73.6948 266.301C73.9446 275.174 77.5146 283.632 83.699 290C89.8834 296.369 98.2322 300.185 107.095 300.696C115.957 301.206 124.689 298.372 131.563 292.755C138.437 287.138 142.954 279.146 144.22 270.36C145.487 261.573 143.41 252.632 138.402 245.302ZM109.143 288.711C105.469 288.714 101.845 287.854 98.5642 286.198C95.2835 284.543 92.438 282.14 90.2573 279.182C88.0766 276.224 86.6218 272.796 86.0103 269.172C85.3988 265.549 85.6478 261.832 86.7372 258.323C87.8265 254.814 89.7257 251.609 92.2814 248.969C94.8372 246.329 97.9779 244.327 101.45 243.124C104.922 241.921 108.628 241.551 112.27 242.044C115.911 242.538 119.385 243.88 122.412 245.964L108.442 263.183L101.537 257.033C100.348 255.974 98.7883 255.431 97.1996 255.523C95.611 255.615 94.1239 256.334 93.0655 257.523C92.0071 258.711 91.464 260.271 91.5559 261.86C91.6477 263.448 92.3669 264.935 93.5552 265.994L105.153 276.323C106.252 277.301 107.672 277.842 109.143 277.842C109.304 277.842 109.466 277.836 109.628 277.823C110.436 277.757 111.223 277.529 111.941 277.151C112.658 276.772 113.292 276.253 113.803 275.623L130.329 255.253C132.02 258.825 132.78 262.767 132.539 266.711C132.298 270.656 131.062 274.476 128.948 277.815C126.834 281.154 123.909 283.904 120.447 285.809C116.984 287.715 113.095 288.713 109.143 288.711Z" fill="#FCC419"/>
<path d="M109.143 324.687C102.134 324.687 95.2821 326.765 89.4541 330.659C83.6261 334.554 79.0837 340.088 76.4014 346.564C73.719 353.04 73.0172 360.166 74.3846 367.04C75.7521 373.915 79.1274 380.23 84.0837 385.186C89.04 390.142 95.3547 393.517 102.229 394.885C109.104 396.252 116.23 395.55 122.705 392.868C129.181 390.186 134.716 385.643 138.61 379.815C142.504 373.987 144.583 367.135 144.583 360.126C144.572 350.73 140.835 341.722 134.191 335.079C127.547 328.435 118.539 324.698 109.143 324.687ZM109.143 383.566C104.507 383.566 99.9756 382.191 96.121 379.616C92.2664 377.04 89.2621 373.379 87.488 369.096C85.7139 364.813 85.2497 360.1 86.154 355.554C87.0584 351.007 89.2907 346.83 92.5687 343.552C95.8468 340.274 100.023 338.042 104.57 337.137C109.117 336.233 113.83 336.697 118.113 338.471C122.396 340.245 126.057 343.249 128.632 347.104C131.208 350.958 132.583 355.49 132.583 360.126C132.576 366.34 130.104 372.298 125.71 376.693C121.316 381.087 115.358 383.559 109.143 383.566Z" fill="#FCC419"/>
<path d="M280.118 155.583C280.118 153.992 279.486 152.466 278.36 151.341C277.235 150.215 275.709 149.583 274.118 149.583H171.943C170.352 149.583 168.826 150.215 167.7 151.341C166.575 152.466 165.943 153.992 165.943 155.583C165.943 157.175 166.575 158.701 167.7 159.826C168.826 160.951 170.352 161.583 171.943 161.583H274.118C275.709 161.583 277.235 160.951 278.36 159.826C279.486 158.701 280.118 157.175 280.118 155.583Z" fill="#FCC419"/>
<path d="M242.532 178.24H171.943C170.352 178.24 168.826 178.872 167.7 179.997C166.575 181.123 165.943 182.649 165.943 184.24C165.943 185.831 166.575 187.357 167.7 188.483C168.826 189.608 170.352 190.24 171.943 190.24H242.532C244.124 190.24 245.65 189.608 246.775 188.483C247.9 187.357 248.532 185.831 248.532 184.24C248.532 182.649 247.9 181.123 246.775 179.997C245.65 178.872 244.124 178.24 242.532 178.24Z" fill="#FCC419"/>
<path d="M242.532 242.366H171.943C170.352 242.366 168.826 242.998 167.7 244.123C166.575 245.248 165.943 246.774 165.943 248.366C165.943 249.957 166.575 251.483 167.7 252.608C168.826 253.733 170.352 254.366 171.943 254.366H242.532C244.124 254.366 245.65 253.733 246.775 252.608C247.9 251.483 248.532 249.957 248.532 248.366C248.532 246.774 247.9 245.248 246.775 244.123C245.65 242.998 244.124 242.366 242.532 242.366Z" fill="#FCC419"/>
<path d="M242.532 271.022H171.943C170.352 271.022 168.826 271.654 167.7 272.779C166.575 273.904 165.943 275.43 165.943 277.022C165.943 278.613 166.575 280.139 167.7 281.264C168.826 282.39 170.352 283.022 171.943 283.022H242.532C244.124 283.022 245.65 282.39 246.775 281.264C247.9 280.139 248.532 278.613 248.532 277.022C248.532 275.43 247.9 273.904 246.775 272.779C245.65 271.654 244.124 271.022 242.532 271.022Z" fill="#FCC419"/>
<path d="M496.804 358.818C496.393 352.382 493.653 346.316 489.095 341.752C484.538 337.189 478.475 334.441 472.04 334.021C471.473 333.985 470.897 333.967 470.33 333.967C466.578 333.963 462.868 334.757 459.446 336.297C456.025 337.836 452.969 340.086 450.483 342.896C448.333 332.767 444.335 323.12 438.688 314.44C439.223 314.472 439.758 314.488 440.291 314.488C445.605 314.487 450.797 312.891 455.193 309.904C459.59 306.918 462.988 302.68 464.947 297.74C466.906 292.799 467.336 287.384 466.181 282.197C465.026 277.009 462.34 272.288 458.47 268.645C454.6 265.003 449.725 262.606 444.477 261.767C439.23 260.928 433.85 261.684 429.037 263.938C424.225 266.192 420.2 269.84 417.484 274.408C414.769 278.977 413.489 284.256 413.809 289.561C405.129 283.915 395.482 279.916 385.353 277.766C389.274 274.291 392.077 269.732 393.41 264.665C394.743 259.598 394.546 254.25 392.843 249.295C391.14 244.34 388.007 240 383.841 236.824C379.674 233.647 374.66 231.775 369.431 231.445C368.875 231.41 368.311 231.392 367.756 231.392C362.374 231.392 357.118 233.029 352.688 236.085C348.258 239.142 344.863 243.474 342.953 248.506C341.044 253.538 340.71 259.032 341.997 264.258C343.283 269.485 346.129 274.196 350.157 277.766C340.027 279.916 330.38 283.915 321.7 289.561C321.967 285.139 321.122 280.721 319.242 276.71C317.363 272.698 314.509 269.221 310.94 266.596C307.372 263.971 303.203 262.282 298.814 261.682C294.425 261.082 289.955 261.591 285.814 263.163C281.672 264.734 277.989 267.317 275.102 270.677C272.216 274.037 270.216 278.067 269.287 282.398C268.357 286.729 268.527 291.224 269.781 295.473C271.035 299.722 273.334 303.589 276.466 306.721C278.923 309.191 281.845 311.15 285.064 312.483C288.283 313.816 291.735 314.498 295.219 314.488C295.751 314.488 296.287 314.472 296.822 314.44C291.175 323.12 287.177 332.767 285.027 342.896C282.541 340.086 279.485 337.837 276.064 336.297C272.642 334.758 268.932 333.963 265.18 333.967C264.613 333.967 264.038 333.985 263.47 334.021C259.122 334.302 254.909 335.649 251.205 337.944C247.501 340.239 244.419 343.412 242.232 347.181C240.045 350.95 238.82 355.2 238.666 359.555C238.512 363.91 239.433 368.235 241.347 372.15C243.262 376.064 246.111 379.447 249.644 381.998C253.176 384.55 257.283 386.192 261.601 386.78C265.919 387.367 270.315 386.882 274.4 385.367C278.486 383.852 282.136 381.353 285.027 378.093C287.177 388.222 291.175 397.869 296.821 406.549C296.287 406.517 295.751 406.501 295.218 406.501C289.904 406.501 284.712 408.098 280.316 411.085C275.919 414.071 272.521 418.309 270.562 423.249C268.603 428.189 268.173 433.604 269.328 438.792C270.483 443.98 273.169 448.701 277.039 452.344C280.909 455.986 285.784 458.383 291.032 459.222C296.28 460.061 301.659 459.305 306.472 457.051C311.285 454.797 315.31 451.149 318.025 446.581C320.74 442.012 322.02 436.733 321.7 431.428C330.381 437.074 340.027 441.072 350.156 443.223C346.236 446.698 343.432 451.257 342.099 456.324C340.766 461.391 340.963 466.739 342.666 471.694C344.369 476.649 347.502 480.989 351.668 484.165C355.835 487.342 360.849 489.214 366.078 489.544C366.635 489.579 367.198 489.596 367.754 489.596C373.136 489.597 378.391 487.96 382.821 484.903C387.251 481.847 390.646 477.514 392.556 472.482C394.465 467.45 394.799 461.956 393.512 456.73C392.226 451.504 389.38 446.793 385.352 443.223C395.482 441.072 405.129 437.074 413.809 431.428C413.542 435.85 414.387 440.268 416.267 444.279C418.146 448.29 421 451.767 424.569 454.392C428.137 457.017 432.306 458.707 436.695 459.306C441.084 459.906 445.554 459.397 449.695 457.826C453.837 456.255 457.52 453.671 460.406 450.311C463.293 446.951 465.293 442.922 466.222 438.591C467.152 434.259 466.982 429.764 465.728 425.516C464.473 421.267 462.175 417.4 459.043 414.268C456.586 411.797 453.664 409.839 450.445 408.506C447.226 407.173 443.775 406.491 440.291 406.501C439.758 406.501 439.222 406.517 438.687 406.549C444.334 397.869 448.332 388.222 450.482 378.092C454.148 382.227 459.013 385.113 464.398 386.349C469.783 387.584 475.42 387.107 480.521 384.985C485.622 382.862 489.933 379.2 492.852 374.509C495.771 369.818 497.153 364.332 496.804 358.818ZM470.329 375.022C468.169 375.024 466.036 374.543 464.086 373.614C462.136 372.686 460.418 371.333 459.057 369.655C458.083 368.484 456.86 367.544 455.478 366.903C454.095 366.262 452.587 365.937 451.064 365.951H443.459C442.553 365.954 441.68 366.29 441.005 366.895C440.331 367.5 439.902 368.332 439.8 369.232C438.219 382.405 433.039 394.887 424.83 405.31C424.28 406.019 424.009 406.905 424.067 407.8C424.126 408.695 424.51 409.538 425.147 410.17L430.521 415.544C432.445 417.495 435.063 418.603 437.803 418.628C438.133 418.628 438.464 418.611 438.793 418.577C439.29 418.526 439.79 418.501 440.29 418.5C443.223 418.501 446.088 419.389 448.506 421.049C450.925 422.708 452.785 425.06 453.841 427.797C454.897 430.533 455.101 433.525 454.424 436.379C453.747 439.234 452.223 441.816 450.051 443.787C447.878 445.758 445.16 447.026 442.254 447.423C439.348 447.82 436.39 447.328 433.769 446.011C431.147 444.695 428.986 442.616 427.569 440.048C426.151 437.48 425.544 434.543 425.828 431.624C425.991 430.141 425.823 428.64 425.336 427.23C424.849 425.82 424.056 424.536 423.012 423.469L417.43 417.886C417.085 417.542 416.677 417.268 416.226 417.082C415.776 416.895 415.294 416.799 414.807 416.799C413.996 416.797 413.208 417.069 412.57 417.57C402.148 425.779 389.665 430.959 376.492 432.54C375.592 432.642 374.76 433.071 374.155 433.745C373.551 434.42 373.214 435.293 373.211 436.199V443.804C373.197 445.328 373.522 446.835 374.163 448.218C374.804 449.601 375.744 450.823 376.916 451.798C379.245 453.69 380.93 456.257 381.741 459.146C382.552 462.035 382.449 465.104 381.445 467.932C380.44 470.76 378.585 473.207 376.134 474.938C373.682 476.668 370.755 477.597 367.754 477.597C367.447 477.597 367.137 477.587 366.824 477.568C363.927 477.382 361.152 476.333 358.857 474.555C356.562 472.778 354.852 470.353 353.948 467.594C353.044 464.835 352.988 461.869 353.787 459.078C354.585 456.286 356.201 453.799 358.427 451.935C359.628 450.946 360.597 449.705 361.266 448.3C361.935 446.895 362.287 445.36 362.298 443.804V436.199C362.294 435.293 361.958 434.42 361.354 433.745C360.749 433.071 359.917 432.642 359.017 432.54C345.844 430.959 333.361 425.78 322.938 417.57C322.301 417.069 321.513 416.797 320.702 416.799C320.215 416.799 319.732 416.895 319.282 417.082C318.832 417.268 318.423 417.542 318.079 417.887L312.704 423.261C311.617 424.329 310.781 425.625 310.256 427.055C309.732 428.486 309.532 430.016 309.671 431.533C309.974 434.455 309.384 437.399 307.978 439.979C306.573 442.558 304.42 444.651 301.801 445.981C299.183 447.312 296.222 447.817 293.311 447.431C290.399 447.045 287.673 445.785 285.491 443.818C283.31 441.851 281.776 439.269 281.092 436.413C280.408 433.557 280.605 430.56 281.659 427.818C282.712 425.077 284.572 422.719 286.992 421.055C289.413 419.392 292.281 418.501 295.218 418.501C295.688 418.501 296.157 418.523 296.625 418.569C296.976 418.602 297.326 418.619 297.675 418.619C298.99 418.633 300.294 418.387 301.513 417.895C302.733 417.403 303.843 416.675 304.78 415.753L310.362 410.17C310.999 409.538 311.383 408.695 311.442 407.8C311.5 406.905 311.229 406.019 310.679 405.31C302.47 394.887 297.291 382.405 295.71 369.232C295.608 368.332 295.179 367.5 294.504 366.895C293.83 366.29 292.957 365.954 292.051 365.951H284.446C282.922 365.937 281.414 366.262 280.032 366.903C278.649 367.544 277.426 368.484 276.452 369.655C274.931 371.527 272.967 372.991 270.739 373.914C268.51 374.837 266.087 375.191 263.688 374.943C261.288 374.695 258.988 373.854 256.995 372.495C255.002 371.136 253.379 369.303 252.272 367.16C251.165 365.017 250.609 362.631 250.655 360.22C250.7 357.808 251.345 355.446 252.532 353.346C253.719 351.246 255.41 349.474 257.453 348.191C259.495 346.908 261.825 346.154 264.232 345.997C264.55 345.977 264.867 345.967 265.181 345.967C267.304 345.965 269.402 346.43 271.327 347.328C273.251 348.227 274.954 349.537 276.315 351.167C277.305 352.368 278.546 353.337 279.951 354.006C281.355 354.675 282.89 355.027 284.446 355.038H292.05C292.956 355.034 293.829 354.698 294.504 354.093C295.178 353.488 295.607 352.657 295.709 351.757C297.29 338.584 302.469 326.101 310.679 315.678C311.228 314.969 311.499 314.084 311.441 313.188C311.383 312.293 310.999 311.45 310.362 310.818L304.988 305.444C303.064 303.494 300.445 302.385 297.706 302.36C297.375 302.36 297.045 302.377 296.716 302.411C293.735 302.719 290.731 302.098 288.117 300.633C285.502 299.167 283.405 296.929 282.113 294.224C280.821 291.52 280.396 288.483 280.898 285.528C281.4 282.573 282.803 279.846 284.916 277.72C287.028 275.594 289.747 274.173 292.699 273.653C295.65 273.133 298.691 273.538 301.403 274.813C304.115 276.088 306.366 278.171 307.848 280.777C309.33 283.382 309.97 286.381 309.681 289.364C309.518 290.847 309.685 292.348 310.172 293.758C310.659 295.168 311.453 296.453 312.496 297.519L318.079 303.102C318.423 303.447 318.832 303.72 319.282 303.907C319.732 304.093 320.215 304.19 320.702 304.19C321.513 304.191 322.301 303.92 322.939 303.418C333.361 295.209 345.844 290.03 359.017 288.449C359.917 288.347 360.749 287.918 361.354 287.243C361.959 286.569 362.295 285.696 362.298 284.79V277.185C362.312 275.661 361.987 274.154 361.346 272.771C360.705 271.388 359.765 270.166 358.594 269.191C356.265 267.299 354.579 264.732 353.768 261.843C352.957 258.954 353.061 255.885 354.065 253.057C355.069 250.229 356.924 247.782 359.376 246.051C361.827 244.32 364.754 243.392 367.755 243.392C368.063 243.392 368.373 243.402 368.685 243.421C371.582 243.607 374.357 244.656 376.652 246.434C378.947 248.211 380.657 250.636 381.561 253.395C382.465 256.154 382.521 259.12 381.723 261.912C380.924 264.703 379.308 267.191 377.082 269.054C375.881 270.044 374.912 271.285 374.243 272.689C373.574 274.094 373.222 275.629 373.211 277.185V284.79C373.215 285.696 373.551 286.569 374.156 287.244C374.76 287.918 375.592 288.347 376.492 288.449C389.665 290.03 402.148 295.209 412.571 303.419C413.208 303.92 413.996 304.192 414.807 304.19C415.294 304.19 415.777 304.094 416.227 303.907C416.677 303.72 417.086 303.447 417.431 303.102L422.805 297.728C423.892 296.66 424.728 295.364 425.253 293.933C425.777 292.503 425.977 290.973 425.838 289.456C425.535 286.534 426.126 283.589 427.531 281.01C428.936 278.431 431.09 276.338 433.708 275.007C436.327 273.677 439.287 273.171 442.199 273.558C445.111 273.944 447.837 275.203 450.018 277.17C452.2 279.137 453.734 281.719 454.418 284.576C455.102 287.432 454.904 290.429 453.851 293.171C452.797 295.913 450.937 298.271 448.516 299.934C446.095 301.597 443.227 302.488 440.29 302.488C439.821 302.488 439.352 302.465 438.884 302.42C438.533 302.387 438.183 302.37 437.834 302.37C436.519 302.356 435.215 302.602 433.996 303.094C432.777 303.586 431.667 304.314 430.73 305.236L425.147 310.819C424.51 311.45 424.126 312.293 424.068 313.189C424.009 314.084 424.281 314.969 424.83 315.679C433.04 326.101 438.219 338.584 439.8 351.757C439.902 352.657 440.331 353.489 441.005 354.093C441.68 354.698 442.553 355.034 443.459 355.038H451.064C452.62 355.027 454.155 354.675 455.56 354.006C456.965 353.337 458.206 352.368 459.195 351.167C460.556 349.537 462.26 348.227 464.184 347.328C466.108 346.43 468.206 345.965 470.33 345.967C470.643 345.967 470.96 345.977 471.278 345.997C475.041 346.243 478.561 347.943 481.093 350.737C483.626 353.531 484.973 357.2 484.85 360.969C484.727 364.738 483.143 368.311 480.433 370.933C477.723 373.556 474.1 375.022 470.329 375.022Z" fill="#FCC419"/>
<path d="M409.105 364.057C405.672 361.38 401.459 359.899 397.106 359.839C392.754 359.779 388.501 361.144 384.997 363.725C382.887 362.712 380.568 362.21 378.227 362.26C375.887 362.31 373.592 362.909 371.527 364.011C369.461 365.112 367.684 366.684 366.34 368.6C364.995 370.516 364.12 372.721 363.785 375.038C363.451 377.354 363.667 379.717 364.415 381.935C365.163 384.153 366.423 386.163 368.093 387.804C369.762 389.444 371.794 390.669 374.025 391.378C376.255 392.087 378.622 392.261 380.932 391.887C382.65 394.149 384.83 396.02 387.329 397.373C389.827 398.726 392.585 399.53 395.419 399.732C398.253 399.934 401.097 399.529 403.762 398.543C406.426 397.558 408.85 396.016 410.871 394.02C412.892 392.023 414.464 389.618 415.482 386.966C416.499 384.313 416.939 381.474 416.772 378.638C416.605 375.802 415.834 373.034 414.512 370.52C413.19 368.005 411.346 365.802 409.105 364.057Z" fill="#FCC419"/>
<path d="M340.499 320.807C337.256 320.807 334.086 321.768 331.389 323.57C328.692 325.372 326.59 327.933 325.349 330.929C324.108 333.926 323.783 337.223 324.416 340.404C325.049 343.585 326.61 346.507 328.904 348.8C331.197 351.093 334.119 352.655 337.3 353.288C340.481 353.921 343.778 353.596 346.774 352.355C349.771 351.114 352.332 349.012 354.134 346.316C355.935 343.619 356.897 340.449 356.897 337.205C356.893 332.858 355.163 328.689 352.089 325.615C349.015 322.541 344.847 320.812 340.499 320.807Z" fill="#FCC419"/>
<path d="M144.969 68.0149H192.083C193.675 68.0149 195.201 67.3828 196.326 66.2575C197.451 65.1323 198.083 63.6062 198.083 62.0149C198.083 60.4236 197.451 58.8975 196.326 57.7723C195.201 56.647 193.675 56.0149 192.083 56.0149H144.969C143.377 56.0149 141.851 56.647 140.726 57.7723C139.601 58.8975 138.969 60.4236 138.969 62.0149C138.969 63.6062 139.601 65.1323 140.726 66.2575C141.851 67.3828 143.377 68.0149 144.969 68.0149Z" fill="#FCC419"/>
<path d="M215.641 68.0149H231.236C232.827 68.0149 234.353 67.3828 235.478 66.2575C236.603 65.1323 237.236 63.6062 237.236 62.0149C237.236 60.4236 236.603 58.8975 235.478 57.7723C234.353 56.647 232.827 56.0149 231.236 56.0149H215.641C214.049 56.0149 212.523 56.647 211.398 57.7723C210.273 58.8975 209.641 60.4236 209.641 62.0149C209.641 63.6062 210.273 65.1323 211.398 66.2575C212.523 67.3828 214.049 68.0149 215.641 68.0149Z" fill="#FCC419"/>
<path d="M329.785 452.211C327.995 455.424 325.771 458.375 323.175 460.981C319.355 464.798 314.795 467.792 309.774 469.778C304.753 471.765 299.378 472.701 293.981 472.531C288.584 472.36 283.279 471.086 278.394 468.787C273.508 466.487 269.146 463.211 265.575 459.161C264.1 457.491 262.772 455.698 261.605 453.801H54.7548C53.098 453.801 51.4575 453.474 49.927 452.84C48.3965 452.205 47.006 451.275 45.835 450.103C44.6639 448.931 43.7353 447.54 43.1021 446.009C42.4689 444.478 42.1436 442.837 42.1448 441.181V81.5208C42.1436 79.864 42.4689 78.2233 43.1021 76.6923C43.7353 75.1613 44.6639 73.77 45.835 72.5981C47.006 71.4261 48.3965 70.4963 49.927 69.862C51.4575 69.2276 53.098 68.901 54.7548 68.9008H110.57V83.9475C110.575 88.6343 112.44 93.1276 115.754 96.4416C119.068 99.7557 123.561 101.62 128.248 101.625H247.957C252.643 101.62 257.137 99.7557 260.451 96.4417C263.765 93.1276 265.629 88.6343 265.635 83.9475V68.9009H321.445C323.102 68.9009 324.743 69.2273 326.274 69.8615C327.805 70.4958 329.197 71.4253 330.369 72.5972C331.54 73.7691 332.47 75.1603 333.104 76.6914C333.738 78.2226 334.065 79.8636 334.065 81.5209V237.211C337.02 232.433 340.954 228.335 345.608 225.188C350.262 222.04 355.53 219.915 361.065 218.951V72.3408C361.064 64.2678 357.857 56.5255 352.149 50.817C346.44 45.1085 338.698 41.9013 330.625 41.9008H265.635V40.0808C265.629 35.394 263.765 30.9007 260.451 27.5867C257.137 24.2726 252.643 22.4084 247.957 22.4031H128.247C123.56 22.4086 119.067 24.2729 115.753 27.587C112.439 30.9012 110.575 35.3945 110.57 40.0813V41.9013H45.5748C41.5779 41.9017 37.6203 42.6895 33.9279 44.2195C30.2356 45.7495 26.8807 47.9919 24.055 50.8186C21.2292 53.6452 18.988 57.0008 17.4592 60.6937C15.9303 64.3866 15.1439 68.3445 15.1448 72.3413V450.371C15.1451 458.442 18.3512 466.182 24.0579 471.888C29.7645 477.595 37.5043 480.801 45.5748 480.801H330.625C331.225 480.801 331.815 480.781 332.405 480.751C327.959 471.91 327.023 461.714 329.785 452.211ZM122.57 40.0813C122.572 38.576 123.17 37.1328 124.235 36.0684C125.299 35.004 126.742 34.4052 128.248 34.4036H247.957C249.462 34.4052 250.905 35.0039 251.97 36.0683C253.034 37.1327 253.633 38.5759 253.635 40.0813V83.9475C253.633 85.4529 253.034 86.8961 251.97 87.9605C250.905 89.0249 249.462 89.6236 247.957 89.6252H128.247C126.742 89.6236 125.299 89.0248 124.234 87.9604C123.17 86.896 122.571 85.4528 122.57 83.9475L122.57 40.0813Z" fill="#FCC419"/>
</svg>
