<svg width="100" height="100" viewBox="0 0 100 100" fill="none" xmlns="http://www.w3.org/2000/svg">
<path d="M82.8 17.15V70.38C82.7974 72.5416 81.9382 74.6141 80.4106 76.1435C78.8831 77.673 76.8116 78.5347 74.65 78.54H74.49V35.1C74.4906 34.3106 74.3355 33.5289 74.0335 32.7996C73.7315 32.0703 73.2885 31.4078 72.73 30.85L60.94 19.06C59.8159 17.9345 58.2908 17.3014 56.7 17.3H30.31V17.15C30.3126 14.9893 31.1722 12.9179 32.7 11.39C34.2279 9.86215 36.2993 9.00265 38.46 9H74.65C76.8107 9.00265 78.8821 9.86215 80.41 11.39C81.9378 12.9179 82.7974 14.9893 82.8 17.15ZM56.62 28.92C56.62 30.5838 57.2803 32.1797 58.4558 33.3571C59.6314 34.5345 61.2262 35.1973 62.89 35.2H70.49V35.12C70.4915 34.8568 70.4411 34.5959 70.3415 34.3522C70.242 34.1085 70.0954 33.8869 69.91 33.7L58.12 21.92C57.9339 21.7328 57.7127 21.5843 57.469 21.4831C57.2253 21.3818 56.9639 21.3298 56.7 21.33H56.62V28.92ZM70.49 39.18V82.69C70.4874 84.8507 69.6278 86.9221 68.1 88.45C66.5722 89.9778 64.5007 90.8374 62.34 90.84H26.15C23.9893 90.8374 21.9178 89.9778 20.39 88.45C18.8622 86.9221 18.0026 84.8507 18 82.69V29.46C18.0026 27.2984 18.8618 25.2259 20.3894 23.6965C21.917 22.167 23.9884 21.3053 26.15 21.3H52.62V28.92C52.6279 31.6404 53.7128 34.247 55.6374 36.1697C57.5619 38.0924 60.1696 39.1747 62.89 39.18H70.49ZM61.87 78.49C61.87 77.9596 61.6593 77.4509 61.2842 77.0758C60.9091 76.7007 60.4004 76.49 59.87 76.49H28.62C28.0896 76.49 27.5809 76.7007 27.2058 77.0758C26.8307 77.4509 26.62 77.9596 26.62 78.49C26.62 79.0204 26.8307 79.5291 27.2058 79.9042C27.5809 80.2793 28.0896 80.49 28.62 80.49H59.87C60.4004 80.49 60.9091 80.2793 61.2842 79.9042C61.6593 79.5291 61.87 79.0204 61.87 78.49ZM61.87 67.81C61.87 67.2796 61.6593 66.7709 61.2842 66.3958C60.9091 66.0207 60.4004 65.81 59.87 65.81H28.62C28.0896 65.81 27.5809 66.0207 27.2058 66.3958C26.8307 66.7709 26.62 67.2796 26.62 67.81C26.62 68.3404 26.8307 68.8491 27.2058 69.2242C27.5809 69.5993 28.0896 69.81 28.62 69.81H59.87C60.4004 69.81 60.9091 69.5993 61.2842 69.2242C61.6593 68.8491 61.87 68.3404 61.87 67.81ZM61.87 57.13C61.87 56.5996 61.6593 56.0909 61.2842 55.7158C60.9091 55.3407 60.4004 55.13 59.87 55.13H28.62C28.0896 55.13 27.5809 55.3407 27.2058 55.7158C26.8307 56.0909 26.62 56.5996 26.62 57.13C26.62 57.6604 26.8307 58.1691 27.2058 58.5442C27.5809 58.9193 28.0896 59.13 28.62 59.13H59.87C60.4004 59.13 60.9091 58.9193 61.2842 58.5442C61.6593 58.1691 61.87 57.6604 61.87 57.13ZM61.87 46.45C61.87 45.9196 61.6593 45.4109 61.2842 45.0358C60.9091 44.6607 60.4004 44.45 59.87 44.45H28.62C28.0896 44.45 27.5809 44.6607 27.2058 45.0358C26.8307 45.4109 26.62 45.9196 26.62 46.45C26.62 46.9804 26.8307 47.4891 27.2058 47.8642C27.5809 48.2393 28.0896 48.45 28.62 48.45H59.87C60.4004 48.45 60.9091 48.2393 61.2842 47.8642C61.6593 47.4891 61.87 46.9804 61.87 46.45Z" fill="#FCC419"/>
</svg>
