<svg width="512" height="512" viewBox="0 0 512 512" fill="none" xmlns="http://www.w3.org/2000/svg">
<path d="M260.12 277C260.362 276.811 260.586 276.6 260.79 276.37C261.764 275.266 262.298 273.842 262.29 272.37C262.278 270.969 261.846 269.603 261.05 268.45C260.155 267.182 258.835 266.277 257.33 265.9L257.06 265.85L250.17 244.79C248.603 240.123 247.2 235.857 245.96 231.99C244.68 227.99 243.437 224.607 242.23 221.84C241.206 219.343 239.861 216.99 238.23 214.84C235.95 211.98 233.53 211.38 231.9 211.38C229.6 211.38 227.49 212.56 225.61 214.89C223.959 217.07 222.582 219.444 221.51 221.96C220.23 224.78 218.93 228.12 217.57 231.96C216.21 235.8 214.89 239.89 213.44 244.42L197.78 293C197.671 293.499 197.618 294.009 197.62 294.52C197.599 295.392 197.78 296.256 198.149 297.046C198.519 297.835 199.067 298.528 199.75 299.07C200.896 299.951 202.304 300.423 203.75 300.41C205.5 300.41 208.06 299.75 210.28 296.66C210.496 296.357 210.658 296.018 210.76 295.66L216.09 278.24H246.89L251.54 296.31C252.065 297.464 252.92 298.438 253.996 299.108C255.072 299.779 256.322 300.117 257.59 300.08C261.52 300.08 264.2 297.72 264.59 293.92C264.627 293.517 264.593 293.111 264.49 292.72L260.12 277ZM234.19 240.61L240.74 260.08C241.27 261.77 241.74 263.39 242.29 264.96H220.7L231.53 232.86C232.31 235.2 233.197 237.777 234.19 240.59V240.61Z" fill="#FCC419"/>
<path d="M298.26 271.26C298.43 266.82 298.59 262.09 298.75 257.14L299.53 230.44C299.58 228.44 299.62 226.69 299.65 225.21C300.12 225.21 300.65 225.21 301.19 225.21C303.57 225.31 305.63 225.42 307.39 225.55C311.05 225.8 313.83 223.63 314.39 219.34C314.416 217.737 313.864 216.178 312.836 214.948C311.808 213.718 310.372 212.899 308.79 212.64C307.79 212.5 306.32 212.35 304.25 212.17C302.18 211.99 294.46 212.08 281.85 212.41C275.01 212.22 268.56 212.69 267.35 217.41C266.35 221.52 267.77 223.55 269.16 224.53C270.619 225.581 272.432 226.019 274.21 225.75C275.329 225.622 276.454 225.552 277.58 225.54L284.19 225.44H286.52C286.52 226.02 286.52 226.64 286.52 227.32C286.52 229.58 286.43 232.21 286.32 235.24L285.32 262.96C284.98 271.267 284.753 277.373 284.64 281.28C284.56 283.54 284.48 285.517 284.4 287.21C278.6 287.11 274.87 287.07 273.18 287.07C271.869 287.058 270.577 287.385 269.43 288.02C268.18 288.71 266.7 290.2 266.7 293.3C266.64 294.7 267.03 298.14 272.01 299.84C272.331 299.956 272.669 300.021 273.01 300.03L307.52 300.61C308.333 300.657 309.147 300.541 309.915 300.269C310.683 299.997 311.388 299.574 311.99 299.025C312.592 298.476 313.078 297.813 313.42 297.074C313.762 296.334 313.952 295.534 313.98 294.72C314.093 293.853 314.025 292.971 313.78 292.131C313.536 291.292 313.121 290.511 312.56 289.84C311.856 289.102 311.006 288.518 310.064 288.126C309.123 287.734 308.11 287.541 307.09 287.56L297.5 287.42C297.62 286.16 297.71 284.73 297.79 283.14C297.94 279.67 298.11 275.7 298.26 271.26Z" fill="#FCC419"/>
<path d="M431.89 312.77V290.07C431.882 283.001 429.071 276.223 424.073 271.224C419.076 266.224 412.299 263.411 405.23 263.4H355.37V248.59H405.23C412.298 248.582 419.075 245.771 424.073 240.773C429.071 235.775 431.882 228.998 431.89 221.93V199.23C438.983 197.587 445.223 193.392 449.422 187.444C453.621 181.496 455.485 174.211 454.658 166.978C453.831 159.744 450.372 153.068 444.939 148.221C439.507 143.373 432.481 140.695 425.2 140.695C417.919 140.695 410.893 143.373 405.46 148.221C400.028 153.068 396.568 159.744 395.742 166.978C394.915 174.211 396.779 181.496 400.978 187.444C405.176 193.392 411.417 197.587 418.51 199.23V221.93C418.507 225.452 417.108 228.83 414.618 231.321C412.128 233.812 408.752 235.215 405.23 235.22H355.37V180.66C355.354 174.3 352.82 168.204 348.323 163.707C343.826 159.209 337.73 156.676 331.37 156.66H276.77V106.78C276.773 103.256 278.174 99.8773 280.665 97.3855C283.157 94.8937 286.536 93.4927 290.06 93.49H312.78C314.423 100.583 318.618 106.824 324.566 111.022C330.514 115.221 337.799 117.085 345.032 116.258C352.266 115.432 358.942 111.972 363.789 106.54C368.637 101.107 371.315 94.0807 371.315 86.8C371.315 79.5193 368.637 72.4931 363.789 67.0605C358.942 61.6278 352.266 58.1685 345.032 57.3418C337.799 56.515 330.514 58.3787 324.566 62.5776C318.618 66.7765 314.423 73.0171 312.78 80.11H290.06C282.991 80.1206 276.214 82.9342 271.217 87.9338C266.219 92.9334 263.408 99.7108 263.4 106.78V156.63H248.6V106.78C248.592 99.7091 245.78 92.9301 240.78 87.9302C235.78 82.9304 229.001 80.1179 221.93 80.11H199.22C197.577 73.0171 193.382 66.7765 187.434 62.5776C181.486 58.3787 174.201 56.515 166.968 57.3418C159.734 58.1685 153.058 61.6278 148.211 67.0605C143.363 72.4931 140.685 79.5193 140.685 86.8C140.685 94.0807 143.363 101.107 148.211 106.54C153.058 111.972 159.734 115.432 166.968 116.258C174.201 117.085 181.486 115.221 187.434 111.022C193.382 106.824 197.577 100.583 199.22 93.49H221.93C225.454 93.4927 228.833 94.8937 231.324 97.3855C233.816 99.8773 235.217 103.256 235.22 106.78V156.63H180.66C174.3 156.646 168.204 159.179 163.707 163.677C159.209 168.174 156.676 174.27 156.66 180.63V235.19H106.77C103.247 235.187 99.8692 233.786 97.379 231.294C94.8888 228.802 93.49 225.423 93.49 221.9V199.2C100.583 197.557 106.823 193.362 111.022 187.414C115.221 181.466 117.085 174.181 116.258 166.948C115.431 159.714 111.972 153.038 106.539 148.191C101.107 143.343 94.0807 140.665 86.8 140.665C79.5193 140.665 72.4931 143.343 67.0605 148.191C61.6278 153.038 58.1685 159.714 57.3417 166.948C56.515 174.181 58.3787 181.466 62.5776 187.414C66.7765 193.362 73.017 197.557 80.11 199.2V221.9C80.1179 228.968 82.9293 235.745 87.9273 240.743C92.9253 245.741 99.7017 248.552 106.77 248.56H156.63V263.4H106.77C99.7008 263.411 92.9244 266.224 87.9267 271.224C82.9289 276.223 80.1179 283.001 80.11 290.07V312.77C73.017 314.413 66.7765 318.608 62.5776 324.556C58.3787 330.504 56.515 337.789 57.3417 345.022C58.1685 352.256 61.6278 358.932 67.0605 363.779C72.4931 368.627 79.5193 371.305 86.8 371.305C94.0807 371.305 101.107 368.627 106.539 363.779C111.972 358.932 115.431 352.256 116.258 345.022C117.085 337.789 115.221 330.504 111.022 324.556C106.823 318.608 100.583 314.413 93.49 312.77V290.07C93.49 286.547 94.8888 283.168 97.379 280.676C99.8692 278.184 103.247 276.783 106.77 276.78H156.63V331.34C156.646 337.7 159.179 343.796 163.677 348.293C168.174 352.791 174.27 355.324 180.63 355.34H235.19V405.19C235.187 408.714 233.786 412.093 231.294 414.585C228.803 417.076 225.424 418.477 221.9 418.48H199.22C197.577 411.387 193.382 405.146 187.434 400.948C181.486 396.749 174.201 394.885 166.968 395.712C159.734 396.538 153.058 399.998 148.211 405.43C143.363 410.863 140.685 417.889 140.685 425.17C140.685 432.451 143.363 439.477 148.211 444.91C153.058 450.342 159.734 453.802 166.968 454.628C174.201 455.455 181.486 453.591 187.434 449.392C193.382 445.194 197.577 438.953 199.22 431.86H221.93C229.001 431.852 235.78 429.04 240.78 424.04C245.78 419.04 248.592 412.261 248.6 405.19V355.37H263.4V405.22C263.408 412.289 266.219 419.067 271.217 424.066C276.214 429.066 282.991 431.879 290.06 431.89H312.78C314.423 438.983 318.618 445.223 324.566 449.422C330.514 453.621 337.799 455.485 345.032 454.658C352.266 453.832 358.942 450.372 363.789 444.94C368.637 439.507 371.315 432.481 371.315 425.2C371.315 417.919 368.637 410.893 363.789 405.46C358.942 400.028 352.266 396.568 345.032 395.742C337.799 394.915 330.514 396.779 324.566 400.978C318.618 405.176 314.423 411.417 312.78 418.51H290.06C286.536 418.507 283.157 417.106 280.665 414.615C278.174 412.123 276.773 408.744 276.77 405.22V355.37H331.34C337.7 355.354 343.796 352.821 348.293 348.323C352.79 343.826 355.324 337.73 355.34 331.37V276.78H405.2C408.722 276.785 412.098 278.188 414.588 280.679C417.078 283.171 418.477 286.548 418.48 290.07V312.77C411.387 314.413 405.146 318.608 400.948 324.556C396.749 330.504 394.885 337.789 395.712 345.022C396.538 352.256 399.998 358.932 405.43 363.779C410.863 368.627 417.889 371.305 425.17 371.305C432.451 371.305 439.477 368.627 444.909 363.779C450.342 358.932 453.801 352.256 454.628 345.022C455.455 337.789 453.591 330.504 449.392 324.556C445.193 318.608 438.953 314.413 431.86 312.77H431.89ZM408.89 170.4C408.89 167.18 409.845 164.033 411.634 161.355C413.423 158.678 415.965 156.591 418.94 155.359C421.915 154.127 425.188 153.805 428.346 154.433C431.504 155.061 434.405 156.612 436.682 158.888C438.958 161.165 440.509 164.066 441.137 167.224C441.765 170.382 441.443 173.655 440.211 176.63C438.979 179.605 436.892 182.147 434.215 183.936C431.537 185.725 428.39 186.68 425.17 186.68C420.859 186.667 416.729 184.946 413.684 181.895C410.638 178.844 408.925 174.711 408.92 170.4H408.89ZM341.6 70.53C344.821 70.528 347.97 71.4814 350.648 73.2695C353.327 75.0576 355.415 77.6001 356.649 80.5753C357.882 83.5505 358.205 86.8247 357.578 89.9836C356.95 93.1426 355.399 96.0443 353.122 98.3217C350.844 100.599 347.943 102.15 344.784 102.778C341.625 103.406 338.35 103.082 335.375 101.849C332.4 100.615 329.858 98.5272 328.069 95.8484C326.281 93.1697 325.328 90.0207 325.33 86.8C325.335 82.4866 327.051 78.3513 330.101 75.3012C333.151 72.2511 337.287 70.5353 341.6 70.53ZM170.4 103.08C167.18 103.082 164.031 102.129 161.353 100.341C158.674 98.5535 156.586 96.0116 155.352 93.037C154.118 90.0624 153.795 86.7887 154.422 83.6301C155.049 80.4714 156.598 77.5696 158.875 75.2918C161.151 73.014 164.052 71.4625 167.21 70.8336C170.369 70.2046 173.642 70.5264 176.618 71.7583C179.593 72.9902 182.136 75.0768 183.926 77.7543C185.715 80.4317 186.67 83.5797 186.67 86.8C186.665 91.1144 184.949 95.2507 181.899 98.3023C178.85 101.354 174.714 103.072 170.4 103.08ZM70.53 170.4C70.53 167.18 71.485 164.032 73.2743 161.354C75.0637 158.677 77.6068 156.59 80.5822 155.358C83.5576 154.126 86.8314 153.805 89.9897 154.434C93.148 155.063 96.0488 156.614 98.3252 158.892C100.602 161.17 102.151 164.071 102.778 167.23C103.405 170.389 103.082 173.662 101.848 176.637C100.614 179.612 98.5259 182.154 95.8474 183.941C93.1688 185.729 90.0203 186.682 86.8 186.68C82.4848 186.675 78.348 184.957 75.2977 181.905C72.2473 178.853 70.5326 174.715 70.53 170.4ZM103.08 341.6C103.08 344.82 102.125 347.967 100.336 350.645C98.5474 353.322 96.0048 355.409 93.0301 356.641C90.0553 357.873 86.7819 358.195 83.6239 357.567C80.4659 356.939 77.5651 355.388 75.2883 353.112C73.0115 350.835 71.461 347.934 70.8328 344.776C70.2046 341.618 70.527 338.345 71.7592 335.37C72.9914 332.395 75.0781 329.853 77.7553 328.064C80.4325 326.275 83.5801 325.32 86.8 325.32C91.1161 325.325 95.2539 327.042 98.3058 330.094C101.358 333.146 103.075 337.284 103.08 341.6ZM170.4 441.47C167.179 441.472 164.03 440.519 161.352 438.73C158.673 436.942 156.585 434.4 155.351 431.425C154.118 428.45 153.794 425.175 154.422 422.016C155.05 418.857 156.601 415.956 158.878 413.678C161.156 411.401 164.057 409.85 167.216 409.222C170.375 408.594 173.649 408.918 176.625 410.151C179.6 411.385 182.142 413.473 183.93 416.152C185.719 418.83 186.672 421.979 186.67 425.2C186.665 429.513 184.949 433.649 181.899 436.699C178.849 439.749 174.713 441.465 170.4 441.47ZM341.6 408.92C344.82 408.918 347.969 409.871 350.647 411.659C353.326 413.446 355.414 415.988 356.648 418.963C357.882 421.938 358.205 425.211 357.578 428.37C356.951 431.529 355.402 434.43 353.125 436.708C350.849 438.986 347.948 440.537 344.79 441.166C341.631 441.795 338.358 441.474 335.382 440.242C332.407 439.01 329.864 436.923 328.074 434.246C326.285 431.568 325.33 428.42 325.33 425.2C325.335 420.886 327.051 416.749 330.101 413.698C333.15 410.646 337.286 408.928 341.6 408.92ZM341.99 331.34C341.987 334.165 340.865 336.873 338.868 338.871C336.872 340.87 334.165 341.995 331.34 342H180.66C177.834 341.997 175.124 340.873 173.125 338.875C171.127 336.876 170.003 334.166 170 331.34V180.66C170.003 177.834 171.127 175.124 173.125 173.125C175.124 171.127 177.834 170.003 180.66 170H331.34C334.166 170.003 336.876 171.127 338.875 173.125C340.873 175.124 341.997 177.834 342 180.66L341.99 331.34ZM425.2 357.87C421.979 357.872 418.83 356.919 416.152 355.13C413.473 353.342 411.385 350.8 410.151 347.825C408.918 344.85 408.594 341.575 409.222 338.416C409.85 335.257 411.401 332.356 413.678 330.078C415.956 327.801 418.857 326.25 422.016 325.622C425.175 324.994 428.449 325.318 431.425 326.551C434.4 327.785 436.942 329.873 438.73 332.552C440.519 335.23 441.472 338.379 441.47 341.6C441.462 345.913 439.745 350.046 436.696 353.096C433.646 356.145 429.513 357.862 425.2 357.87Z" fill="#FCC419"/>
</svg>
