<svg width="57" height="96" viewBox="0 0 57 96" fill="none" xmlns="http://www.w3.org/2000/svg">
<g clip-path="url(#clip0_8_60)">
<path d="M47.5967 96C45.1598 96.0027 42.817 95.0642 41.0622 93.3823L5.51167 59.2648C4.116 57.9276 3.0058 56.3242 2.24749 54.5504C1.48917 52.7765 1.09833 50.8688 1.09833 48.9413C1.09833 47.0137 1.48917 45.106 2.24749 43.3322C3.0058 41.5584 4.116 39.9549 5.51167 38.6178L41.0622 4.50022C42.858 2.77762 45.2681 1.83518 47.7625 1.88022C50.2568 1.92527 52.631 2.95411 54.3628 4.74042C56.0945 6.52673 57.042 8.92417 56.9967 11.4053C56.9514 13.8865 55.9171 16.2482 54.1213 17.9708L21.843 48.9413L54.1213 79.9118C55.4713 81.2056 56.4016 82.8713 56.7929 84.6949C57.1842 86.5185 57.0185 88.4169 56.3172 90.1461C55.6159 91.8754 54.4109 93.3567 52.857 94.3998C51.3031 95.4429 49.4713 96.0001 47.5967 96Z" fill="#FCC419"/>
</g>
<defs>
<clipPath id="clip0_8_60">
<rect width="56.72" height="96" fill="white"/>
</clipPath>
</defs>
</svg>
