<svg width="57" height="96" viewBox="0 0 57 96" fill="none" xmlns="http://www.w3.org/2000/svg">
<g clip-path="url(#clip0_8_56)">
<path d="M7.00522e-05 84.5727C-0.00769638 86.8276 0.630477 89.0341 1.83369 90.9126C3.0369 92.791 4.75097 94.2568 6.75862 95.1241C8.76626 95.9914 10.9771 96.2211 13.1108 95.7842C15.2445 95.3473 17.2051 94.2634 18.744 92.6699L53.7814 56.3034C54.8065 55.2409 55.6181 53.9781 56.1694 52.5883C56.7208 51.1984 57.0007 49.709 56.9932 48.2062C56.9932 48.0746 56.9932 47.9532 56.9932 47.8317C57.0461 46.2753 56.789 44.7243 56.2381 43.2754C55.6872 41.8266 54.8542 40.511 53.7912 39.4106L18.7342 3.13524C16.6576 1.0879 13.8915 -0.0368855 11.0261 0.000923213C8.16075 0.0387319 5.42311 1.23614 3.39746 3.33761C1.37182 5.43908 0.218601 8.27815 0.183935 11.2489C0.149269 14.2197 1.2359 17.0869 3.21192 19.2385L30.8396 47.8823L3.21192 76.5261C2.19268 77.5826 1.38437 78.8371 0.833243 80.2178C0.282119 81.5985 -0.00100528 83.0784 7.00522e-05 84.5727Z" fill="#FCC419"/>
</g>
<defs>
<clipPath id="clip0_8_56">
<rect width="56.72" height="96" fill="white"/>
</clipPath>
</defs>
</svg>
