<svg width="100" height="100" viewBox="0 0 100 100" fill="none" xmlns="http://www.w3.org/2000/svg">
<path fill-rule="evenodd" clip-rule="evenodd" d="M58.552 83.9677H42.408V88.4877C42.4148 88.5817 42.4421 88.6731 42.488 88.7553C42.534 88.8376 42.5975 88.9087 42.674 88.9637C42.936 89.1657 43.2593 89.2716 43.59 89.2638H57.37C57.7007 89.2716 58.024 89.1657 58.286 88.9637C58.3625 88.9087 58.426 88.8376 58.472 88.7553C58.5179 88.6731 58.5452 88.5817 58.552 88.4877V83.9677ZM72.437 71.0386C72.2304 70.8319 72.1144 70.5515 72.1145 70.2592C72.1146 69.9669 72.2308 69.6867 72.4375 69.4801C72.6442 69.2735 72.9246 69.1575 73.2169 69.1575C73.5091 69.1576 73.7894 69.2738 73.996 69.4806L80.504 75.9886C80.6064 76.0909 80.6876 76.2124 80.743 76.3461C80.7984 76.4798 80.827 76.6231 80.827 76.7678C80.8271 76.9125 80.7986 77.0558 80.7433 77.1895C80.6879 77.3233 80.6068 77.4448 80.5045 77.5471C80.4022 77.6495 80.2807 77.7307 80.1471 77.7862C80.0134 77.8416 79.8701 77.8701 79.7254 77.8702C79.5806 77.8702 79.4373 77.8418 79.3036 77.7864C79.1699 77.7311 79.0484 77.6499 78.946 77.5476L72.437 71.0386ZM82.66 48.6144C82.3683 48.6144 82.0885 48.4985 81.8822 48.2922C81.6759 48.0859 81.56 47.8061 81.56 47.5144C81.56 47.2226 81.6759 46.9428 81.8822 46.7366C82.0885 46.5303 82.3683 46.4144 82.66 46.4144H91.86C92.1517 46.4144 92.4315 46.5303 92.6378 46.7366C92.8441 46.9428 92.96 47.2226 92.96 47.5144C92.96 47.8061 92.8441 48.0859 92.6378 48.2922C92.4315 48.4985 92.1517 48.6144 91.86 48.6144H82.66ZM74.032 25.5292C73.8254 25.7359 73.5451 25.8521 73.2529 25.8522C72.9606 25.8523 72.6802 25.7363 72.4735 25.5297C72.2668 25.3231 72.1506 25.0428 72.1505 24.7505C72.1504 24.4583 72.2664 24.1779 72.473 23.9712L78.98 17.4621C79.1867 17.2555 79.4671 17.1395 79.7594 17.1396C80.0516 17.1397 80.3319 17.2559 80.5385 17.4626C80.7451 17.6693 80.8611 17.9497 80.861 18.242C80.8609 18.5343 80.7447 18.8145 80.538 19.0211L74.03 25.5292H74.032ZM26.932 69.4446C27.1393 69.2428 27.4176 69.1308 27.7069 69.1328C27.9961 69.1348 28.2729 69.2507 28.4773 69.4553C28.6818 69.6598 28.7974 69.9367 28.7992 70.2259C28.801 70.5152 28.6889 70.7935 28.487 71.0006L21.98 77.5116C21.7733 77.7183 21.4929 77.8343 21.2006 77.8342C20.9084 77.8341 20.6281 77.7179 20.4215 77.5111C20.2149 77.3044 20.0989 77.0241 20.099 76.7318C20.0991 76.4395 20.2153 76.1592 20.422 75.9526L26.93 69.4446H26.932ZM18.3 46.3594C18.5917 46.3594 18.8715 46.4753 19.0778 46.6816C19.2841 46.8878 19.4 47.1676 19.4 47.4594C19.4 47.7511 19.2841 48.0309 19.0778 48.2372C18.8715 48.4435 18.5917 48.5594 18.3 48.5594H9.1C8.80826 48.5594 8.52847 48.4435 8.32218 48.2372C8.11589 48.0309 8 47.7511 8 47.4594C8 47.1676 8.11589 46.8878 8.32218 46.6816C8.52847 46.4753 8.80826 46.3594 9.1 46.3594H18.3ZM28.523 23.9352C28.7296 24.1419 28.8456 24.4223 28.8455 24.7145C28.8454 25.0068 28.7292 25.2871 28.5225 25.4937C28.3158 25.7003 28.0354 25.8163 27.7431 25.8162C27.4509 25.8161 27.1706 25.6999 26.964 25.4932L20.456 18.9841C20.3537 18.8818 20.2726 18.7604 20.2172 18.6267C20.1618 18.4931 20.1333 18.3498 20.1333 18.2051C20.1333 18.0604 20.1618 17.9172 20.2172 17.7835C20.2726 17.6499 20.3537 17.5284 20.456 17.4261C20.5583 17.3238 20.6797 17.2427 20.8134 17.1873C20.9471 17.1319 21.0903 17.1034 21.235 17.1034C21.3797 17.1034 21.5229 17.1319 21.6566 17.1873C21.7903 17.2427 21.9117 17.3238 22.014 17.4261L28.523 23.9352ZM51.608 15.3071C51.608 15.5988 51.4921 15.8786 51.2858 16.0849C51.0795 16.2912 50.7997 16.4071 50.508 16.4071C50.2163 16.4071 49.9365 16.2912 49.7302 16.0849C49.5239 15.8786 49.408 15.5988 49.408 15.3071V6.10001C49.408 5.80827 49.5239 5.52848 49.7302 5.32219C49.9365 5.11589 50.2163 5 50.508 5C50.7997 5 51.0795 5.11589 51.2858 5.32219C51.4921 5.52848 51.608 5.80827 51.608 6.10001V15.3051V15.3071ZM45.814 91.4648C46.2821 92.3482 46.8992 93.1442 47.638 93.8178C48.0048 94.1921 48.4425 94.4894 48.9256 94.6924C49.4087 94.8954 49.9275 95 50.4515 95C50.9755 95 51.4943 94.8954 51.9774 94.6924C52.4605 94.4894 52.8982 94.1921 53.265 93.8178C54.0042 93.1436 54.6216 92.3469 55.09 91.4628L45.814 91.4648ZM49.378 74.2646V68.3646C47.7099 68.1023 46.1903 67.253 45.093 65.9696C43.9956 64.6862 43.3926 63.0531 43.3926 61.3645C43.3926 59.6759 43.9956 58.0428 45.093 56.7595C46.1903 55.4761 47.7099 54.6267 49.378 54.3644V49.2294H43.225C42.9333 49.2294 42.6535 49.1135 42.4472 48.9072C42.2409 48.7009 42.125 48.4211 42.125 48.1294C42.1066 46.8471 41.5844 45.6235 40.6711 44.7232C39.7578 43.8229 38.5269 43.3182 37.2445 43.3182C35.9621 43.3182 34.7312 43.8229 33.8179 44.7232C32.9046 45.6235 32.3824 46.8471 32.364 48.1294C32.364 48.4211 32.2481 48.7009 32.0418 48.9072C31.8355 49.1135 31.5557 49.2294 31.264 49.2294H28.342C28.7295 52.8769 30.0201 56.3702 32.097 59.3935C32.977 60.6795 34.081 61.9935 35.215 63.3415C38.044 66.7066 41.052 70.2846 41.537 74.2666L49.378 74.2646ZM72.618 49.2274H70.718C70.4557 50.8955 69.6064 52.4151 68.323 53.5125C67.0396 54.6098 65.4066 55.2128 63.718 55.2128C62.0294 55.2128 60.3964 54.6098 59.113 53.5125C57.8296 52.4151 56.9803 50.8955 56.718 49.2274H51.58V55.3815C51.58 55.6732 51.4641 55.953 51.2578 56.1593C51.0515 56.3656 50.7717 56.4815 50.48 56.4815C49.8332 56.4722 49.191 56.5916 48.5908 56.8327C47.9905 57.0738 47.4442 57.4319 46.9835 57.886C46.5229 58.3401 46.1571 58.8812 45.9074 59.478C45.6577 60.0747 45.5291 60.7151 45.5291 61.362C45.5291 62.0089 45.6577 62.6493 45.9074 63.246C46.1571 63.8428 46.5229 64.3839 46.9835 64.838C47.4442 65.2922 47.9905 65.6502 48.5908 65.8913C49.191 66.1324 49.8332 66.2518 50.48 66.2425C50.7717 66.2425 51.0515 66.3584 51.2578 66.5647C51.4641 66.771 51.58 67.0508 51.58 67.3426V74.2606H59.424C59.924 70.2916 62.941 66.6866 65.766 63.3115C66.904 61.9525 68.009 60.6325 68.861 59.3875C70.9379 56.3642 72.2285 52.8708 72.616 49.2234L72.618 49.2274ZM49.378 47.0274V40.8723C49.378 40.5806 49.4939 40.3008 49.7002 40.0945C49.9065 39.8882 50.1863 39.7723 50.478 39.7723C51.1248 39.7816 51.767 39.6622 52.3672 39.4211C52.9675 39.1799 53.5138 38.8219 53.9745 38.3678C54.4351 37.9137 54.8009 37.3725 55.0506 36.7758C55.3003 36.179 55.4289 35.5386 55.4289 34.8918C55.4289 34.2449 55.3003 33.6045 55.0506 33.0077C54.8009 32.411 54.4351 31.8699 53.9745 31.4157C53.5138 30.9616 52.9675 30.6036 52.3672 30.3625C51.767 30.1214 51.1248 30.002 50.478 30.0112C50.1863 30.0112 49.9065 29.8953 49.7002 29.689C49.4939 29.4827 49.378 29.203 49.378 28.9112V24.5882C43.6707 24.871 38.2906 27.3374 34.3513 31.4769C30.4119 35.6164 28.2149 41.112 28.215 46.8264C28.215 46.8924 28.215 46.9594 28.215 47.0264H30.241C30.5033 45.3583 31.3526 43.8387 32.636 42.7413C33.9194 41.644 35.5524 41.041 37.241 41.041C38.9296 41.041 40.5626 41.644 41.846 42.7413C43.1294 43.8387 43.9787 45.3583 44.241 47.0264L49.378 47.0274ZM51.578 24.5902V27.8902C53.2461 28.1525 54.7657 29.0018 55.863 30.2852C56.9604 31.5686 57.5634 33.2017 57.5634 34.8903C57.5634 36.5788 56.9604 38.2119 55.863 39.4953C54.7657 40.7787 53.2461 41.628 51.578 41.8903V47.0264H57.732C58.0237 47.0264 58.3035 47.1423 58.5098 47.3486C58.7161 47.5549 58.832 47.8346 58.832 48.1264C58.8227 48.7732 58.9421 49.4154 59.1833 50.0156C59.4244 50.6159 59.7824 51.1622 60.2365 51.6229C60.6906 52.0835 61.2318 52.4493 61.8285 52.699C62.4252 52.9487 63.0656 53.0773 63.7125 53.0773C64.3594 53.0773 64.9998 52.9487 65.5965 52.699C66.1932 52.4493 66.7344 52.0835 67.1885 51.6229C67.6426 51.1622 68.0006 50.6159 68.2417 50.0156C68.4829 49.4154 68.6023 48.7732 68.593 48.1264C68.593 47.8346 68.7089 47.5549 68.9152 47.3486C69.1215 47.1423 69.4013 47.0264 69.693 47.0264H72.736C72.736 46.9604 72.736 46.8934 72.736 46.8264C72.7362 41.1132 70.5401 35.6185 66.6023 31.4792C62.6644 27.3399 57.2861 24.8727 51.58 24.5882L51.578 24.5902ZM41.306 81.7637H60.267C60.8716 81.7807 61.4705 81.643 62.007 81.3637C62.255 81.2207 62.407 81.0847 62.407 80.9917V76.4716H38.551V80.9917C38.551 81.0847 38.705 81.2207 38.951 81.3637C39.4875 81.643 40.0864 81.7807 40.691 81.7637H41.306Z" fill="#FCC419"/>
</svg>
